<svg width="21" height="21" viewBox="0 0 21 21" fill="none" xmlns="http://www.w3.org/2000/svg">
<path d="M10.6665 0.5C5.1565 0.5 0.666504 4.99 0.666504 10.5C0.666504 16.01 5.1565 20.5 10.6665 20.5C16.1765 20.5 20.6665 16.01 20.6665 10.5C20.6665 4.99 16.1765 0.5 10.6665 0.5ZM9.9165 6.5C9.9165 6.09 10.2565 5.75 10.6665 5.75C11.0765 5.75 11.4165 6.09 11.4165 6.5V11.5C11.4165 11.91 11.0765 12.25 10.6665 12.25C10.2565 12.25 9.9165 11.91 9.9165 11.5V6.5ZM11.5865 14.88C11.5365 15.01 11.4665 15.11 11.3765 15.21C11.2765 15.3 11.1665 15.37 11.0465 15.42C10.9265 15.47 10.7965 15.5 10.6665 15.5C10.5365 15.5 10.4065 15.47 10.2865 15.42C10.1665 15.37 10.0565 15.3 9.9565 15.21C9.8665 15.11 9.7965 15.01 9.7465 14.88C9.6965 14.76 9.6665 14.63 9.6665 14.5C9.6665 14.37 9.6965 14.24 9.7465 14.12C9.7965 14 9.8665 13.89 9.9565 13.79C10.0565 13.7 10.1665 13.63 10.2865 13.58C10.5265 13.48 10.8065 13.48 11.0465 13.58C11.1665 13.63 11.2765 13.7 11.3765 13.79C11.4665 13.89 11.5365 14 11.5865 14.12C11.6365 14.24 11.6665 14.37 11.6665 14.5C11.6665 14.63 11.6365 14.76 11.5865 14.88Z" fill="white"/>
</svg>
