<svg width="31" height="31" viewBox="0 0 31 31" fill="none" xmlns="http://www.w3.org/2000/svg">
<path d="M22.4808 16.2595C22.4692 14.2809 23.3657 12.7896 25.1761 11.69C24.1635 10.2394 22.6316 9.44156 20.6124 9.2878C18.7004 9.13693 16.6086 10.4019 15.8427 10.4019C15.0332 10.4019 13.1822 9.34002 11.7258 9.34002C8.7201 9.38644 5.52581 11.7365 5.52581 16.5177C5.52581 17.9306 5.78402 19.39 6.30044 20.8928C6.99094 22.8715 9.48023 27.7195 12.0769 27.6412C13.4346 27.6092 14.395 26.6779 16.1618 26.6779C17.8765 26.6779 18.7643 27.6412 20.2787 27.6412C22.8986 27.6034 25.1499 23.1964 25.8056 21.212C22.2922 19.5554 22.4808 16.3611 22.4808 16.2595ZM19.4316 7.41068C20.9025 5.66412 20.769 4.07423 20.7255 3.50269C19.4258 3.57812 17.9229 4.38757 17.067 5.3827C16.1241 6.45037 15.57 7.77044 15.6889 9.25878C17.0931 9.36613 18.3755 8.64372 19.4316 7.41068Z" fill="black"/>
</svg>
