<svg width="25" height="25" viewBox="0 0 25 25" fill="none" xmlns="http://www.w3.org/2000/svg">
<path d="M19.7915 11.4582H7.43734L11.2186 6.91655C11.3954 6.70382 11.4805 6.42957 11.4551 6.15413C11.4297 5.87868 11.2959 5.62461 11.0832 5.4478C10.8704 5.27099 10.5962 5.18592 10.3208 5.21132C10.0453 5.23671 9.79123 5.37049 9.61442 5.58321L4.40609 11.8332C4.37105 11.8829 4.33971 11.9352 4.31234 11.9895C4.31234 12.0415 4.31234 12.0728 4.23942 12.1249C4.19221 12.2443 4.16748 12.3715 4.1665 12.4999C4.16748 12.6283 4.19221 12.7554 4.23942 12.8749C4.23942 12.927 4.23942 12.9582 4.31234 13.0103C4.33971 13.0646 4.37105 13.1168 4.40609 13.1665L9.61442 19.4165C9.71236 19.5341 9.83501 19.6287 9.97364 19.6935C10.1123 19.7583 10.2635 19.7918 10.4165 19.7915C10.6599 19.792 10.8958 19.7073 11.0832 19.552C11.1886 19.4645 11.2758 19.3571 11.3397 19.2359C11.4037 19.1147 11.443 18.9821 11.4556 18.8457C11.4682 18.7093 11.4537 18.5717 11.4131 18.4408C11.3724 18.31 11.3063 18.1885 11.2186 18.0832L7.43734 13.5415H19.7915C20.0678 13.5415 20.3327 13.4318 20.5281 13.2364C20.7234 13.0411 20.8332 12.7761 20.8332 12.4999C20.8332 12.2236 20.7234 11.9587 20.5281 11.7633C20.3327 11.568 20.0678 11.4582 19.7915 11.4582Z" fill="black" fill-opacity="0.7"/>
</svg>
