<svg width="24" height="22" viewBox="0 0 24 22" fill="none" xmlns="http://www.w3.org/2000/svg">
<path d="M22.8 9.6H20.4V2.4H21.6V0H19.2H4.8H2.4V2.4H3.6V9.6H1.2C0.5364 9.6 0 10.1376 0 10.8V19.2V20.4V21.6H1.2H3.6H4.8H19.2H20.4H22.8H24V20.4V19.2V10.8C24 10.1376 23.4636 9.6 22.8 9.6ZM14.4 19.2V14.4H9.6V19.2H6V2.4H18V19.2H14.4Z" fill="black" fill-opacity="0.7"/>
<path d="M8.3999 4.80005H10.7999V7.20005H8.3999V4.80005ZM13.1999 4.80005H15.5999V7.20005H13.1999V4.80005ZM8.3999 9.60005H10.7999V12H8.3999V9.60005ZM13.1999 9.60005H15.5999V12H13.1999V9.60005Z" fill="black" fill-opacity="0.7"/>
</svg>
