<svg width="25" height="28" viewBox="0 0 25 28" fill="none" xmlns="http://www.w3.org/2000/svg">
<path d="M23.8 11.7846H21.4V3.50114H22.6V0.73999H20.2H5.8H3.4V3.50114H4.6V11.7846H2.2C1.5364 11.7846 1 12.4031 1 13.1652V22.8292V24.2097V25.5903H2.2H4.6H5.8H20.2H21.4H23.8H25V24.2097V22.8292V13.1652C25 12.4031 24.4636 11.7846 23.8 11.7846ZM15.4 22.8292V17.3069H10.6V22.8292H7V3.50114H19V22.8292H15.4Z" fill="#888888"/>
<path d="M9.40002 6.26239H11.8V9.02355H9.40002V6.26239ZM14.2 6.26239H16.6V9.02355H14.2V6.26239ZM9.40002 11.7847H11.8V14.5459H9.40002V11.7847ZM14.2 11.7847H16.6V14.5459H14.2V11.7847Z" fill="#888888"/>
</svg>
