<svg width="24" height="28" viewBox="0 0 24 28" fill="none" xmlns="http://www.w3.org/2000/svg">
<path d="M20.04 2.01135H5.03998C3.93598 2.01135 3.03998 3.04219 3.03998 4.31233V7.76379H1.03998V10.0648H3.03998V12.3657H1.03998V14.6667H3.03998V16.9677H1.03998V19.2687H3.03998V22.7201C3.03998 23.9903 3.93598 25.0211 5.03998 25.0211H20.04C20.593 25.0211 21.04 24.5068 21.04 23.8706V3.16184C21.04 2.52562 20.593 2.01135 20.04 2.01135ZM12.04 5.46167C13.688 5.46167 15.04 7.01597 15.04 8.91313C15.04 10.8091 13.688 12.3657 12.04 12.3657C10.393 12.3657 9.03998 10.8091 9.03998 8.91313C9.03998 7.01597 10.393 5.46167 12.04 5.46167ZM18.04 20.4192H6.03998V19.5563C6.03998 17.0034 8.74498 14.3791 12.04 14.3791C15.335 14.3791 18.04 17.0034 18.04 19.5563V20.4192Z" fill="#888888"/>
</svg>
