<svg width="25" height="25" viewBox="0 0 25 25" fill="none" xmlns="http://www.w3.org/2000/svg">
<path d="M6.67963 3.58353L7.55605 2.70711C7.94658 2.31658 8.57974 2.31658 8.97026 2.70711L11.7666 5.50342C12.1571 5.89394 12.1571 6.52711 11.7666 6.91763L9.84261 8.8416C9.528 9.15621 9.45 9.63685 9.64898 10.0348C10.7993 12.3353 12.6647 14.2007 14.9652 15.351C15.3632 15.55 15.8438 15.472 16.1584 15.1574L18.0824 13.2334C18.4729 12.8429 19.1061 12.8429 19.4966 13.2334L22.2929 16.0297C22.6834 16.4203 22.6834 17.0534 22.2929 17.4439L21.4165 18.3204C19.3051 20.4317 15.9625 20.6693 13.5738 18.8777L11.9444 17.6556C10.2008 16.348 8.65201 14.7992 7.34436 13.0556L6.12226 11.4262C4.33072 9.03745 4.56827 5.69488 6.67963 3.58353Z" fill="white"/>
</svg>
