<svg width="28" height="28" viewBox="0 0 28 28" fill="none" xmlns="http://www.w3.org/2000/svg">
<path d="M5.83349 15.3771V18.6554C5.83349 19.5071 6.30016 20.3004 7.04682 20.7087L12.8802 23.8937C13.5802 24.2787 14.4202 24.2787 15.1202 23.8937L20.9535 20.7087C21.7002 20.3004 22.1668 19.5071 22.1668 18.6554V15.3771L15.1202 19.2271C14.4202 19.6121 13.5802 19.6121 12.8802 19.2271L5.83349 15.3771ZM12.8802 4.10709L3.04516 9.47375C2.24016 9.91709 2.24016 11.0838 3.04516 11.5271L12.8802 16.8938C13.5802 17.2788 14.4202 17.2788 15.1202 16.8938L24.5002 11.7721V18.6671C24.5002 19.3088 25.0252 19.8337 25.6668 19.8337C26.3085 19.8337 26.8335 19.3088 26.8335 18.6671V11.1888C26.8335 10.7571 26.6002 10.3721 26.2268 10.1621L15.1202 4.10709C14.4202 3.73375 13.5802 3.73375 12.8802 4.10709Z" fill="black" fill-opacity="0.7"/>
</svg>
