<svg width="28" height="33" viewBox="0 0 28 33" fill="none" xmlns="http://www.w3.org/2000/svg">
<path d="M5.83337 18.1312V21.9029C5.83337 22.8827 6.30003 23.7954 7.0467 24.2652L12.88 27.9295C13.58 28.3724 14.42 28.3724 15.12 27.9295L20.9534 24.2652C21.7 23.7954 22.1667 22.8827 22.1667 21.9029V18.1312L15.12 22.5605C14.42 23.0035 13.58 23.0035 12.88 22.5605L5.83337 18.1312ZM12.88 5.16521L3.04503 11.3395C2.24003 11.8495 2.24003 13.1918 3.04503 13.7018L12.88 19.8761C13.58 20.319 14.42 20.319 15.12 19.8761L24.5 13.9837V21.9163C24.5 22.6545 25.025 23.2585 25.6667 23.2585C26.3084 23.2585 26.8334 22.6545 26.8334 21.9163V13.3126C26.8334 12.8159 26.6 12.373 26.2267 12.1314L15.12 5.16521C14.42 4.7357 13.58 4.7357 12.88 5.16521Z" fill="#888888"/>
</svg>
