<svg width="38" height="38" viewBox="0 0 38 38" fill="none" xmlns="http://www.w3.org/2000/svg">
<path d="M26.2682 14.25H23.7507V6.33333C23.7507 5.4625 23.0382 4.75 22.1674 4.75H15.834C14.9632 4.75 14.2507 5.4625 14.2507 6.33333V14.25H11.7332C10.324 14.25 9.61153 15.96 10.609 16.9575L17.8765 24.225C18.494 24.8425 19.4915 24.8425 20.109 24.225L27.3765 16.9575C28.374 15.96 27.6774 14.25 26.2682 14.25ZM7.91736 30.0833C7.91736 30.9542 8.62986 31.6667 9.50069 31.6667H28.5007C29.3715 31.6667 30.084 30.9542 30.084 30.0833C30.084 29.2125 29.3715 28.5 28.5007 28.5H9.50069C8.62986 28.5 7.91736 29.2125 7.91736 30.0833Z" fill="black" fill-opacity="0.7"/>
</svg>
