<svg width="60" height="60" viewBox="0 0 60 60" fill="none" xmlns="http://www.w3.org/2000/svg">
<path d="M0 10C0 4.47715 4.47715 0 10 0H50C55.5228 0 60 4.47715 60 10V50C60 55.5228 55.5228 60 50 60H10C4.47715 60 0 55.5228 0 50V10Z" fill="#D65A00"/>
<path d="M41.4748 22.5H37.4998V10C37.4998 8.625 36.3748 7.5 34.9998 7.5H24.9998C23.6248 7.5 22.4998 8.625 22.4998 10V22.5H18.5248C16.2998 22.5 15.1748 25.2 16.7498 26.775L28.2248 38.25C29.1998 39.225 30.7748 39.225 31.7498 38.25L43.2248 26.775C44.7998 25.2 43.6998 22.5 41.4748 22.5ZM12.4998 47.5C12.4998 48.875 13.6248 50 14.9998 50H44.9998C46.3748 50 47.4998 48.875 47.4998 47.5C47.4998 46.125 46.3748 45 44.9998 45H14.9998C13.6248 45 12.4998 46.125 12.4998 47.5Z" fill="white"/>
</svg>
