<svg width="35" height="35" viewBox="0 0 35 35" fill="none" xmlns="http://www.w3.org/2000/svg">
<path d="M28.7879 10.6896L22.3129 3.39789C22.1766 3.24682 22.0101 3.12596 21.8242 3.04308C21.6384 2.96019 21.4372 2.91713 21.2337 2.91664H9.56707C9.08254 2.91086 8.60162 3.00059 8.15176 3.18068C7.70191 3.36078 7.29193 3.62773 6.94526 3.96629C6.59858 4.30484 6.32198 4.70837 6.13127 5.15382C5.94055 5.59928 5.83945 6.07794 5.83374 6.56248V28.4375C5.83945 28.922 5.94055 29.4007 6.13127 29.8461C6.32198 30.2916 6.59858 30.6951 6.94526 31.0337C7.29193 31.3722 7.70191 31.6392 8.15176 31.8193C8.60162 31.9994 9.08254 32.0891 9.56707 32.0833H25.4337C25.9183 32.0891 26.3992 31.9994 26.849 31.8193C27.2989 31.6392 27.7089 31.3722 28.0556 31.0337C28.4022 30.6951 28.6788 30.2916 28.8695 29.8461C29.0603 29.4007 29.1614 28.922 29.1671 28.4375V11.6666C29.1661 11.3052 29.031 10.957 28.7879 10.6896ZM20.4171 5.83331L25.8712 11.6666H21.4962C21.3435 11.6574 21.1942 11.6179 21.0569 11.5503C20.9196 11.4828 20.7972 11.3885 20.6967 11.2731C20.5963 11.1577 20.5198 11.0235 20.4718 10.8782C20.4238 10.733 20.4052 10.5796 20.4171 10.4271V5.83331Z" fill="white"/>
</svg>
