<svg width="29" height="30" viewBox="0 0 29 30" fill="none" xmlns="http://www.w3.org/2000/svg">
<path d="M17.8132 5.625H25.0306C25.5343 5.62495 26.0325 5.7335 26.4935 5.94373C26.9544 6.15397 27.3679 6.46127 27.7076 6.84604C28.0473 7.23081 28.3058 7.68459 28.4665 8.17846C28.6272 8.67232 28.6867 9.19541 28.6411 9.71438L27.4865 22.8394C27.4047 23.7711 26.9891 24.6375 26.3215 25.2685C25.6538 25.8996 24.7822 26.2496 23.8778 26.25H5.12028C4.21591 26.2496 3.34434 25.8996 2.67666 25.2685C2.00899 24.6375 1.59344 23.7711 1.51159 22.8394L0.35703 9.71438C0.279793 8.84584 0.499119 7.97676 0.976905 7.25813L0.906217 5.625C0.906217 4.63044 1.28814 3.67661 1.96796 2.97335C2.64777 2.27009 3.56981 1.875 4.53122 1.875H11.1867C12.148 1.87521 13.0699 2.27044 13.7496 2.97375L15.2503 4.52625C15.93 5.22956 16.8519 5.62479 17.8132 5.625ZM2.72959 5.85C3.11747 5.70375 3.53434 5.625 3.96934 5.625H13.7496L12.4682 4.29938C12.1283 3.94772 11.6674 3.75011 11.1867 3.75H4.53122C4.05642 3.74991 3.60055 3.94256 3.26161 4.28652C2.92267 4.63048 2.72774 5.09829 2.71872 5.58938L2.72959 5.85Z" fill="white"/>
</svg>
