<svg width="31" height="31" viewBox="0 0 31 31" fill="none" xmlns="http://www.w3.org/2000/svg">
<path d="M27.8468 13.1475H26.8497V13.0961H15.7089V18.0476H22.7047C21.6841 20.9299 18.9416 22.999 15.7089 22.999C11.6072 22.999 8.28167 19.6735 8.28167 15.5718C8.28167 11.4701 11.6072 8.1446 15.7089 8.1446C17.6022 8.1446 19.3247 8.85885 20.6362 10.0255L24.1376 6.52422C21.9267 4.46379 18.9694 3.19312 15.7089 3.19312C8.87276 3.19312 3.33019 8.73568 3.33019 15.5718C3.33019 22.408 8.87276 27.9505 15.7089 27.9505C22.545 27.9505 28.0876 22.408 28.0876 15.5718C28.0876 14.7418 28.0022 13.9316 27.8468 13.1475Z" fill="#FFC107"/>
<path d="M4.75746 9.81015L8.82448 12.7928C9.92495 10.0682 12.5901 8.1446 15.7089 8.1446C17.6022 8.1446 19.3247 8.85885 20.6362 10.0255L24.1376 6.52422C21.9267 4.46379 18.9695 3.19312 15.7089 3.19312C10.9542 3.19312 6.83089 5.87744 4.75746 9.81015Z" fill="#FF3D00"/>
<path d="M15.7089 27.9482C18.9063 27.9482 21.8116 26.7245 24.0082 24.7346L20.177 21.4927C18.8924 22.4696 17.3228 22.998 15.7089 22.9967C12.4892 22.9967 9.75537 20.9437 8.72546 18.0786L4.68877 21.1888C6.73744 25.1976 10.8979 27.9482 15.7089 27.9482Z" fill="#4CAF50"/>
<path d="M27.8468 13.1476H26.8497V13.0962H15.7089V18.0477H22.7047C22.2165 19.4195 21.3371 20.6182 20.1751 21.4958L20.177 21.4945L24.0082 24.7365C23.7371 24.9828 28.0876 21.7613 28.0876 15.5719C28.0876 14.7419 28.0022 13.9318 27.8468 13.1476Z" fill="#1976D2"/>
</svg>
