<svg width="24" height="24" viewBox="0 0 24 24" fill="none" xmlns="http://www.w3.org/2000/svg">
<path d="M7.49902 2.99072C4.46142 2.99072 1.99902 5.45273 1.99902 8.49073C1.99902 11.6747 3.81252 14.6787 6.81152 17.4287C7.83512 18.3667 8.93723 19.1897 10.0302 19.9287C10.4133 20.1867 10.7716 20.4208 11.0928 20.6158C11.2886 20.7348 11.4177 20.8208 11.499 20.8658C11.801 21.0338 12.197 21.0338 12.499 20.8658C12.5803 20.8208 12.7094 20.7348 12.9052 20.6158C13.2264 20.4208 13.5847 20.1867 13.9678 19.9287C15.0608 19.1897 16.1629 18.3667 17.1865 17.4287C20.1855 14.6787 21.999 11.6747 21.999 8.49073C21.999 5.45273 19.5366 2.99072 16.499 2.99072C14.7738 2.99072 13.0894 3.93074 12.0302 5.30274C10.9974 3.90674 9.31893 2.99072 7.49902 2.99072ZM7.49902 4.99073C8.71292 4.99073 9.84653 5.60674 10.499 6.55274C10.5624 6.64474 11.0623 7.37974 11.1552 7.52174C11.5421 8.11474 12.4053 8.13275 12.8115 7.55274C12.9103 7.41174 13.4306 6.67972 13.499 6.58472C14.1801 5.63272 15.3722 4.99073 16.499 4.99073C18.432 4.99073 19.999 6.55773 19.999 8.49073C19.999 10.9937 18.4375 13.5207 15.8115 15.9287C14.8663 16.7947 13.8591 17.5848 12.8428 18.2718C12.5355 18.4798 12.2614 18.6418 11.999 18.8028C11.7366 18.6418 11.4625 18.4798 11.1552 18.2718C10.1389 17.5848 9.13173 16.7947 8.18652 15.9287C5.56052 13.5207 3.99902 10.9937 3.99902 8.49073C3.99902 6.55773 5.56602 4.99073 7.49902 4.99073Z" fill="#2A343D"/>
</svg>
