<svg width="20" height="21" viewBox="0 0 20 21" fill="none" xmlns="http://www.w3.org/2000/svg">
<g clip-path="url(#clip0_6_83)">
<path d="M17.3833 7.47504L11.6083 2.85837C10.7167 2.1417 9.275 2.1417 8.39166 2.85004L2.61666 7.47504C1.96666 7.9917 1.55 9.08337 1.69166 9.90004L2.8 16.5334C3 17.7167 4.13333 18.675 5.33333 18.675H14.6667C15.8583 18.675 17 17.7084 17.2 16.5334L18.3083 9.90004C18.4417 9.08337 18.025 7.9917 17.3833 7.47504ZM10 13.4167C8.85 13.4167 7.91666 12.4834 7.91666 11.3334C7.91666 10.1834 8.85 9.25004 10 9.25004C11.15 9.25004 12.0833 10.1834 12.0833 11.3334C12.0833 12.4834 11.15 13.4167 10 13.4167Z" fill="white"/>
</g>
<defs>
<clipPath id="clip0_6_83">
<rect width="20" height="20" fill="white" transform="translate(0 0.5)"/>
</clipPath>
</defs>
</svg>
