<svg width="19" height="21" viewBox="0 0 19 21" fill="none" xmlns="http://www.w3.org/2000/svg">
<path d="M17.6592 12.5406L16.5101 10.6558C16.2559 10.2448 16.0321 9.45275 16.0321 8.97153V7.09675C16.0321 3.45751 13.0322 0.5 9.35094 0.5C5.65953 0.510025 2.6596 3.45751 2.6596 7.09675V8.9615C2.6596 9.44273 2.43587 10.2347 2.19181 10.6458L1.04269 12.5306C0.605407 13.2624 0.503715 14.0945 0.778285 14.8164C1.05285 15.5482 1.67318 16.1297 2.48672 16.3904C3.585 16.7513 4.69345 17.0119 5.82224 17.2024C5.9341 17.2225 6.04596 17.2325 6.15782 17.2526C6.30019 17.2726 6.45273 17.2927 6.60527 17.3127C6.86967 17.3528 7.13407 17.3829 7.40861 17.4029C8.04928 17.4631 8.70011 17.4932 9.35094 17.4932C9.99161 17.4932 10.6323 17.4631 11.2628 17.4029C11.4967 17.3829 11.7305 17.3628 11.9543 17.3328C12.1373 17.3127 12.3204 17.2927 12.5034 17.2626C12.6153 17.2526 12.7271 17.2325 12.839 17.2125C13.978 17.032 15.1067 16.7513 16.205 16.3904C16.9881 16.1297 17.588 15.5482 17.8728 14.8063C18.1575 14.0544 18.0762 13.2323 17.6592 12.5406ZM10.0933 8.47026C10.0933 8.89133 9.74754 9.23219 9.32043 9.23219C8.89333 9.23219 8.54757 8.89133 8.54757 8.47026V5.36235C8.54757 4.94128 8.89333 4.60041 9.32043 4.60041C9.74754 4.60041 10.0933 4.94128 10.0933 5.36235V8.47026Z" fill="white"/>
<path d="M12.2085 18.5049C11.7814 19.6679 10.6526 20.5 9.33063 20.5C8.52726 20.5 7.73406 20.1792 7.17474 19.6077C6.84932 19.3069 6.60526 18.9059 6.46289 18.4949C6.59509 18.5149 6.72729 18.5249 6.86966 18.545C7.10355 18.5751 7.34763 18.6052 7.59169 18.6252C8.17134 18.6753 8.76115 18.7054 9.35097 18.7054C9.93062 18.7054 10.5103 18.6753 11.0797 18.6252C11.2933 18.6052 11.5069 18.5951 11.7102 18.5651C11.8729 18.545 12.0357 18.5249 12.2085 18.5049Z" fill="white"/>
</svg>
