<svg width="21" height="24" viewBox="0 0 21 24" fill="none" xmlns="http://www.w3.org/2000/svg">
<path d="M10.3306 10.394C9.90578 10.394 9.55353 10.0417 9.55353 9.61697V6.16693C9.55353 5.74215 9.90578 5.38989 10.3306 5.38989C10.7553 5.38989 11.1076 5.74215 11.1076 6.16693V9.61697C11.1076 10.0521 10.7553 10.394 10.3306 10.394Z" fill="#C6C6C6"/>
<path d="M10.3512 20.5786C7.67815 20.5786 5.01551 20.1539 2.47719 19.3043C1.53438 18.9935 0.819511 18.3201 0.508696 17.4705C0.197882 16.6209 0.301487 15.647 0.80915 14.7975L2.12493 12.6011C2.41503 12.1141 2.67404 11.2024 2.67404 10.6326V8.4569C2.67404 4.21947 6.11372 0.779785 10.3512 0.779785C14.5886 0.779785 18.0283 4.21947 18.0283 8.4569V10.6326C18.0283 11.192 18.2873 12.1141 18.5774 12.6011L19.8932 14.7975C20.3801 15.6056 20.463 16.5691 20.1418 17.4498C19.8207 18.3304 19.1162 19.0038 18.2252 19.3043C15.6868 20.1642 13.0242 20.5786 10.3512 20.5786ZM10.3512 2.34422C6.97364 2.34422 4.22811 5.08975 4.22811 8.46726V10.6429C4.22811 11.4821 3.89657 12.6943 3.46143 13.4092L2.14565 15.616C1.87628 16.0615 1.81412 16.538 1.96952 16.9525C2.12493 17.3669 2.47719 17.6777 2.97449 17.8435C7.74031 19.4286 12.9827 19.4286 17.7486 17.8435C18.1941 17.6984 18.536 17.3669 18.6914 16.9317C18.8571 16.4966 18.8053 16.02 18.567 15.616L17.2513 13.4195C16.8161 12.7047 16.4846 11.4925 16.4846 10.6533V8.47762C16.4742 5.08975 13.7287 2.34422 10.3512 2.34422Z" fill="#C6C6C6"/>
<path d="M10.3305 23.2202C9.22194 23.2202 8.13411 22.7644 7.34671 21.977C6.55932 21.1896 6.10345 20.1017 6.10345 18.9932H7.65753C7.65753 19.6977 7.94762 20.3815 8.4449 20.8788C8.94221 21.3761 9.626 21.6662 10.3305 21.6662C11.8017 21.6662 13.0035 20.4644 13.0035 18.9932H14.5576C14.5576 21.3243 12.6616 23.2202 10.3305 23.2202Z" fill="#C6C6C6"/>
</svg>
