<svg width="24" height="28" viewBox="0 0 24 28" fill="none" xmlns="http://www.w3.org/2000/svg">
<path d="M17.8642 10.4253H16.8739V8.14668C16.8739 5.00215 14.6556 2.45007 11.9224 2.45007C9.18915 2.45007 6.97089 5.00215 6.97089 8.14668V10.4253H5.98059C4.89127 10.4253 4 11.4507 4 12.704V24.0972C4 25.3504 4.89127 26.3758 5.98059 26.3758H17.8642C18.9535 26.3758 19.8447 25.3504 19.8447 24.0972V12.704C19.8447 11.4507 18.9535 10.4253 17.8642 10.4253ZM11.9224 20.6792C10.833 20.6792 9.94178 19.6538 9.94178 18.4006C9.94178 17.1473 10.833 16.1219 11.9224 16.1219C13.0117 16.1219 13.903 17.1473 13.903 18.4006C13.903 19.6538 13.0117 20.6792 11.9224 20.6792ZM14.9923 10.4253H8.85245V8.14668C8.85245 6.19844 10.229 4.61478 11.9224 4.61478C13.6158 4.61478 14.9923 6.19844 14.9923 8.14668V10.4253Z" fill="black" fill-opacity="0.5"/>
</svg>
