<svg width="50" height="50" viewBox="0 0 50 50" fill="none" xmlns="http://www.w3.org/2000/svg">
<path d="M11.3316 15.6634L16.0998 24.0078L16.0998 24.0078C16.3767 24.4923 16.5151 24.7345 16.5151 25.0001C16.5151 25.2657 16.3767 25.5079 16.0998 25.9924L11.3316 34.3367C10.0933 36.5038 9.47415 37.5873 9.95698 38.1246C10.4398 38.6619 11.5831 38.1617 13.8697 37.1613L13.8697 37.1613L37.4787 26.8324C39.2742 26.0469 40.1719 25.6541 40.1719 25.0001C40.1719 24.3461 39.2742 23.9533 37.4787 23.1678L13.8697 12.8389C11.5831 11.8385 10.4398 11.3383 9.95698 11.8756C9.47415 12.4129 10.0933 13.4964 11.3316 15.6634Z" fill="#222222"/>
</svg>
