<svg width="25" height="28" viewBox="0 0 25 28" fill="none" xmlns="http://www.w3.org/2000/svg">
<path fill-rule="evenodd" clip-rule="evenodd" d="M10.5 2C8.84315 2 7.5 3.34315 7.5 5H7.375C5.61942 5 4.74163 5 4.11107 5.43653C3.8381 5.62551 3.60372 5.86834 3.42133 6.15117C3 6.80448 3 7.71395 3 9.53288V21.8364C3 24.2785 3 25.4995 3.73223 26.2582C4.46447 27.0168 5.64298 27.0168 8 27.0168H18C20.357 27.0168 21.5355 27.0168 22.2678 26.2582C23 25.4995 23 24.2785 23 21.8364V9.53288C23 7.71395 23 6.80448 22.5787 6.15117C22.3963 5.86834 22.1619 5.62551 21.8889 5.43653C21.2584 5 20.3806 5 18.625 5H18.5C18.5 3.34315 17.1569 2 15.5 2H10.5ZM10.75 5C10.75 4.44772 11.1977 4 11.75 4H14.25C14.8023 4 15.25 4.44772 15.25 5C15.25 5.55228 14.8023 6 14.25 6H11.75C11.1977 6 10.75 5.55228 10.75 5ZM9.25 13.0659C8.69772 13.0659 8.25 13.5136 8.25 14.0659C8.25 14.6182 8.69772 15.0659 9.25 15.0659H16.75C17.3023 15.0659 17.75 14.6182 17.75 14.0659C17.75 13.5136 17.3023 13.0659 16.75 13.0659H9.25ZM9.25 18.2463C8.69772 18.2463 8.25 18.694 8.25 19.2463C8.25 19.7986 8.69772 20.2463 9.25 20.2463H14.25C14.8023 20.2463 15.25 19.7986 15.25 19.2463C15.25 18.694 14.8023 18.2463 14.25 18.2463H9.25Z" fill="white"/>
</svg>
