<svg width="24" height="25" viewBox="0 0 24 25" fill="none" xmlns="http://www.w3.org/2000/svg">
<path d="M12 2.5C9.38 2.5 7.25 4.63 7.25 7.25C7.25 9.82 9.26 11.9 11.88 11.99C11.96 11.98 12.04 11.98 12.1 11.99C12.12 11.99 12.13 11.99 12.15 11.99C12.16 11.99 12.16 11.99 12.17 11.99C14.73 11.9 16.74 9.82 16.75 7.25C16.75 4.63 14.62 2.5 12 2.5Z" fill="white"/>
<path d="M17.08 14.65C14.29 12.79 9.73996 12.79 6.92996 14.65C5.65996 15.5 4.95996 16.65 4.95996 17.88C4.95996 19.11 5.65996 20.25 6.91996 21.09C8.31996 22.03 10.16 22.5 12 22.5C13.84 22.5 15.68 22.03 17.08 21.09C18.34 20.24 19.04 19.1 19.04 17.86C19.03 16.63 18.34 15.49 17.08 14.65Z" fill="white"/>
</svg>
