<svg width="25" height="25" viewBox="0 0 25 25" fill="none" xmlns="http://www.w3.org/2000/svg">
<path d="M9.61537 4.98716C10.4347 2.94445 10.8444 1.9231 11.5489 1.9231C12.2535 1.9231 12.6631 2.94445 13.4825 4.98716L13.5207 5.08228C13.9836 6.23631 14.215 6.81332 14.6868 7.16404C15.1585 7.51475 15.7777 7.57021 17.0162 7.68113L17.2401 7.70118C19.2669 7.8827 20.2804 7.97346 20.4972 8.61824C20.7141 9.26301 19.9615 9.94774 18.4562 11.3172L17.9538 11.7743C17.1918 12.4675 16.8109 12.8141 16.6333 13.2684C16.6002 13.3532 16.5726 13.44 16.5508 13.5284C16.4341 14.002 16.5457 14.5048 16.7688 15.5105L16.8383 15.8235C17.2484 17.6718 17.4534 18.5959 17.0954 18.9946C16.9616 19.1435 16.7878 19.2507 16.5946 19.3034C16.0777 19.4445 15.3439 18.8465 13.8762 17.6506C12.9125 16.8653 12.4307 16.4726 11.8774 16.3843C11.6598 16.3496 11.4381 16.3496 11.2205 16.3843C10.6672 16.4726 10.1854 16.8653 9.22165 17.6506C7.75399 18.8465 7.02016 19.4445 6.50328 19.3034C6.31014 19.2507 6.13628 19.1435 6.0025 18.9946C5.6445 18.5959 5.84954 17.6718 6.25962 15.8235L6.32907 15.5105C6.55221 14.5048 6.66377 14.002 6.54705 13.5284C6.52528 13.44 6.49774 13.3532 6.46461 13.2684C6.28704 12.8141 5.90604 12.4675 5.14406 11.7743L4.64168 11.3172C3.13643 9.94774 2.3838 9.26301 2.60065 8.61824C2.81751 7.97346 3.83095 7.8827 5.85784 7.70118L6.08173 7.68113C7.32019 7.57021 7.93941 7.51475 8.41113 7.16404C8.88285 6.81332 9.11431 6.23631 9.57722 5.08228L9.61537 4.98716Z" fill="white" stroke="white"/>
</svg>
