<svg width="22" height="20" viewBox="0 0 22 20" fill="none" xmlns="http://www.w3.org/2000/svg">
<path d="M3.3335 5.74998L2.34255 6.87605L1.06293 5.74998L2.34255 4.62391L3.3335 5.74998ZM8.54183 17.3333C7.7134 17.3333 7.04183 16.6617 7.04183 15.8333C7.04183 15.0049 7.7134 14.3333 8.54183 14.3333L8.54183 17.3333ZM7.55089 11.4594L2.34255 6.87605L4.32444 4.62391L9.53277 9.20724L7.55089 11.4594ZM2.34255 4.62391L7.55088 0.0405785L9.53277 2.29272L4.32444 6.87605L2.34255 4.62391ZM3.3335 4.24998L14.9585 4.24998L14.9585 7.24998L3.3335 7.24998L3.3335 4.24998ZM14.9585 17.3333L8.54183 17.3333L8.54183 14.3333L14.9585 14.3333L14.9585 17.3333ZM21.5002 10.7916C21.5002 14.4045 18.5714 17.3333 14.9585 17.3333L14.9585 14.3333C16.9145 14.3333 18.5002 12.7477 18.5002 10.7916L21.5002 10.7916ZM14.9585 4.24998C18.5714 4.24998 21.5002 7.17878 21.5002 10.7916L18.5002 10.7916C18.5002 8.83564 16.9145 7.24998 14.9585 7.24998L14.9585 4.24998Z" fill="white"/>
</svg>
