<svg width="25" height="25" viewBox="0 0 25 25" fill="none" xmlns="http://www.w3.org/2000/svg">
<path fill-rule="evenodd" clip-rule="evenodd" d="M10.7619 13.1969L8.00719 12.3234C5.53788 11.5404 4.30322 11.1489 4.30322 10.4169C4.30322 9.68492 5.53788 9.29343 8.00719 8.51045L8.00719 8.51045L17.8898 5.37683C19.5546 4.84894 20.387 4.585 20.8176 5.02867C21.2481 5.47234 20.9593 6.29645 20.3818 7.94467L20.3818 7.94468L17.0228 17.5305C16.2372 19.7722 15.8445 20.893 15.1353 20.893C14.4261 20.893 14.0333 19.7722 13.2478 17.5305L12.2129 14.577L16.9195 10.0998C17.3197 9.71914 17.3355 9.08617 16.9548 8.68601C16.5742 8.28586 15.9412 8.27004 15.5411 8.65069L10.7619 13.1969Z" fill="white"/>
</svg>
